<?xml version="1.0" encoding="UTF-8" standalone="no"?>
<svg
   xmlns:dc="http://purl.org/dc/elements/1.1/"
   xmlns:cc="http://creativecommons.org/ns#"
   xmlns:rdf="http://www.w3.org/1999/02/22-rdf-syntax-ns#"
   xmlns:svg="http://www.w3.org/2000/svg"
   xmlns="http://www.w3.org/2000/svg"
   xmlns:sodipodi="http://sodipodi.sourceforge.net/DTD/sodipodi-0.dtd"
   xmlns:inkscape="http://www.inkscape.org/namespaces/inkscape"
   id="unicorn"
   viewBox="0 0 119.06 117.81"
   version="1.1"
   sodipodi:docname="unicorn-r-to-l-combined.svg"
   inkscape:version="0.92.4 (5da689c313, 2019-01-14)">
  <metadata
     id="metadata34">
    <rdf:RDF>
      <cc:Work
         rdf:about="">
        <dc:format>image/svg+xml</dc:format>
        <dc:type
           rdf:resource="http://purl.org/dc/dcmitype/StillImage" />
        <dc:title />
      </cc:Work>
    </rdf:RDF>
  </metadata>
  <sodipodi:namedview
     pagecolor="#ffffff"
     bordercolor="#666666"
     borderopacity="1"
     objecttolerance="10"
     gridtolerance="10"
     guidetolerance="10"
     inkscape:pageopacity="0"
     inkscape:pageshadow="2"
     inkscape:window-width="1325"
     inkscape:window-height="934"
     id="namedview32"
     showgrid="false"
     inkscape:zoom="5.6659775"
     inkscape:cx="66.680237"
     inkscape:cy="60.327084"
     inkscape:window-x="180"
     inkscape:window-y="36"
     inkscape:window-maximized="0"
     inkscape:current-layer="unicorn" />
  <defs
     id="defs4">
    <style
       id="style2">.cls-1{fill:#1d1d1b;}</style>
  </defs>
  <g
     id="g17">
    <path
       inkscape:connector-curvature="0"
       id="path28"
       style="fill:#1d1d1b"
       d="m 60.82663,101.91 c 0.12,0 12.17,-1.48 17.82,-9.93 4.73,-7.09 5.23,-10.42 5.23,-10.44 a 1.34,1.34 0 0 1 2.66,0.31 c 0,0.39 -0.58,4 -5.67,11.61 -4.12,6.18 -11,9 -15.47,10.23 a 23,23 0 0 0 14.65,-1.63 c 9.78,-5.32 15,-15.53 15.48,-30.33 0.65,-19.54 -9.43,-30 -16.36,-32.24 a 1.3408393,1.3408393 0 0 1 0.83,-2.55 c 7.7,2.5 18.91,13.86 18.21,34.88 -0.53,15.82 -6.21,26.79 -16.87,32.6 a 25.83,25.83 0 0 1 -11.29,2.51 18.42,18.42 0 0 1 -9.81,-2.55 1.34,1.34 0 0 1 0.56,-2.47 z M 21.04663,54 a 1.35,1.35 0 0 1 1.34,-0.51 c 0.35,0.07 8.71,1.6 13.71,-7 3.38,-5.83 8.31,-9.73 13.52,-10.7 a 14.65,14.65 0 0 1 12.06,3.41 1.34,1.34 0 0 1 0.2,1.88 1.33,1.33 0 0 1 -1.88,0.2 c -3.14,-2.53 -6.47,-3.49 -9.89,-2.85 -4.38,0.81 -8.75,4.33 -11.69,9.41 a 16.11,16.11 0 0 1 -12.36,8.37 10.07,10.07 0 0 0 1,0.26 c 3.67,0.7 8.34,-0.33 10.66,-2.34 0.67,-0.58 1.38,-1.31 2.16,-2.11 3.83,-3.92 9.62,-9.83 18.75,-7.47 a 1.34,1.34 0 0 1 -0.58,2.55 c -7.64,-2 -12.36,2.86 -16.16,6.74 -0.84,0.86 -1.61,1.65 -2.32,2.26 -2.91,2.53 -8.46,3.81 -12.92,2.95 -2.75,-0.53 -4.72,-1.79 -5.68,-3.64 a 1.37,1.37 0 0 1 0.08,-1.41 z m 58.59,-5.06 c 8.5,6.82 9.12,13.66 8.71,18.85 A 24,24 0 0 1 78.21663,85 c -5.92,4 -6.82,9 -6.85,9.24 a 1.35,1.35 0 0 1 -1.23,1.13 h -0.09 a 1.35,1.35 0 0 1 -1.29,-1 21.39,21.39 0 0 1 0.5,-11.9 19.12,19.12 0 0 1 4,-6.65 18.19,18.19 0 0 0 4.25,-7.63 11.54,11.54 0 0 0 -3,-11.13 1.3453624,1.3453624 0 1 1 1.8,-2 14.21,14.21 0 0 1 3.74,13.94 20.9,20.9 0 0 1 -4.77,8.63 16.65,16.65 0 0 0 -3.51,5.78 18.85,18.85 0 0 0 -0.95,5.36 20.44,20.44 0 0 1 5.84,-6 21.2,21.2 0 0 0 9,-15.17 c 0.39,-4.84 -0.22,-10.6 -7.7,-16.6 a 1.3407554,1.3407554 0 1 1 1.68,-2.09 z m -46.34,-1 a 1.23,1.23 0 0 1 -0.25,0.06 1.34,1.34 0 0 1 -1.31,-1.06 8.1,8.1 0 0 1 3.14,-7.8 1.34,1.34 0 0 1 1.62,2.13 5.41,5.41 0 0 0 -2.13,5.13 1.36,1.36 0 0 1 -1.07,1.54 z m 30.36,-14.72 a 1.42,1.42 0 0 1 -0.45,-0.08 20,20 0 0 0 -11.65,-0.74 1.36,1.36 0 0 1 -1.68,-0.89 1.33,1.33 0 0 1 0.88,-1.67 22.4,22.4 0 0 1 13.36,0.78 1.34,1.34 0 0 1 -0.46,2.6 z m -17.25,0.56 c -5.48,-7.87 -12.15,-16.56 -15.11,-19.35 0.84,4 4.8,14.16 8.81,23.25 a 1.33,1.33 0 0 1 -0.69,1.76 1.25,1.25 0 0 1 -0.54,0.12 1.34,1.34 0 0 1 -1.22,-0.8 c -11.51,-26.06 -9.32,-27.12 -8.14,-27.69 1.18,-0.57 3.24,-1.58 19.09,21.18 a 1.34,1.34 0 1 1 -2.2,1.53 z m 4.08,32.04 a 3.51,3.51 0 0 1 -0.44,-4.95 3.61,3.61 0 0 1 4.84,-1.16 3.13,3.13 0 0 1 1.25,2.39 4.08,4.08 0 0 1 -0.8,2.57 3.51,3.51 0 0 1 -4.85,1.15 z m 2.64,-4 a 1.29,1.29 0 0 0 -0.92,0.59 c -0.35,0.48 -0.37,1.07 -0.16,1.21 a 1.19,1.19 0 0 0 1.1,-0.54 c 0.24,-0.31 0.53,-1 -0.02,-1.24 z m -22.08,15.34 a 1.34,1.34 0 0 1 -1,0.4 1.38,1.38 0 0 1 -1,-0.4 3.07,3.07 0 0 1 -0.24,-4.23 1.32,1.32 0 0 1 1.85,-0.15 1.36,1.36 0 0 1 0.39,1.87 c -0.23,0.31 -0.06,0.48 0.08,0.62 a 1.34,1.34 0 0 1 -0.08,1.89 z m 23.12,7.39 a 1.34,1.34 0 0 1 1.7,0.84 c 0,0.14 1.15,3.56 0.42,10.21 a 1.34,1.34 0 0 1 -1.33,1.19 h -0.15 a 1.34,1.34 0 0 1 -1.19,-1.48 c 0.67,-6 -0.29,-9 -0.29,-9.07 a 1.33,1.33 0 0 1 0.84,-1.69 z m 18.02,-28.42 a 1.26,1.26 0 0 1 -0.65,-0.17 1.33,1.33 0 0 1 -0.49,-1.82 c 6.11,-11.06 1.39,-19.94 -1.11,-22.54 -1.28,3.06 -4.51,11.25 -6.7,16.84 a 1.3416501,1.3416501 0 1 1 -2.49,-1 c 0.66,-1.69 6.49,-16.61 7.3,-18.19 a 1.59,1.59 0 0 1 1.37,-0.87 c 3.26,-0.13 12,12.53 3.94,27 a 1.33,1.33 0 0 1 -1.17,0.75 z m -4.61,-5.98 a 1.3477574,1.3477574 0 1 1 -2.53,-0.93 c 0.79,-2.11 2.64,-7.07 2.89,-7.57 a 1.46,1.46 0 0 1 1.19,-0.76 1.79,1.79 0 0 1 1.54,1 10.29,10.29 0 0 1 -0.1,9.78 1.33,1.33 0 0 1 -1.17,0.69 1.29,1.29 0 0 1 -0.65,-0.17 1.34,1.34 0 0 1 -0.52,-1.82 7.57,7.57 0 0 0 0.91,-4.43 z m -39.86,16.55 c 3.54,-2 8.44,-6.6 10,-8.19 a 1.34,1.34 0 1 1 1.89,1.9 c -0.06,0.06 -6,6 -10.6,8.62 -3.26,1.87 -4.36,4.7 -3.26,8.38 0.51,1.75 2.68,7.34 8.8,6.28 2.12,-0.37 4.11,-0.9 6.2,-1.47 a 46.39,46.39 0 0 1 12.65,-2.09 c 9.29,0 13.26,-2.85 13.26,-9.52 a 1.34,1.34 0 1 1 2.68,0 c 0,12.19 -12,12.19 -15.94,12.19 a 44,44 0 0 0 -12,2 c -2.07,0.56 -4.2,1.13 -6.44,1.52 -6,1 -10.22,-2.75 -11.83,-8.15 -1.37,-4.89 0.23,-8.96 4.59,-11.47 z" />
  </g>
</svg>
