<?xml version="1.0" encoding="UTF-8" standalone="no"?>
<svg
   xmlns:dc="http://purl.org/dc/elements/1.1/"
   xmlns:cc="http://creativecommons.org/ns#"
   xmlns:rdf="http://www.w3.org/1999/02/22-rdf-syntax-ns#"
   xmlns:svg="http://www.w3.org/2000/svg"
   xmlns="http://www.w3.org/2000/svg"
   xmlns:sodipodi="http://sodipodi.sourceforge.net/DTD/sodipodi-0.dtd"
   xmlns:inkscape="http://www.inkscape.org/namespaces/inkscape"
   id="unicorn"
   viewBox="0 0 119.06 117.81"
   version="1.1"
   sodipodi:docname="unicorn-l-to-r-combined.svg"
   inkscape:version="0.92.4 (5da689c313, 2019-01-14)">
  <metadata
     id="metadata34">
    <rdf:RDF>
      <cc:Work
         rdf:about="">
        <dc:format>image/svg+xml</dc:format>
        <dc:type
           rdf:resource="http://purl.org/dc/dcmitype/StillImage" />
        <dc:title />
      </cc:Work>
    </rdf:RDF>
  </metadata>
  <sodipodi:namedview
     pagecolor="#ffffff"
     bordercolor="#666666"
     borderopacity="1"
     objecttolerance="10"
     gridtolerance="10"
     guidetolerance="10"
     inkscape:pageopacity="0"
     inkscape:pageshadow="2"
     inkscape:window-width="1459"
     inkscape:window-height="881"
     id="namedview32"
     showgrid="false"
     inkscape:zoom="11.331955"
     inkscape:cx="29.285038"
     inkscape:cy="98.331515"
     inkscape:window-x="0"
     inkscape:window-y="0"
     inkscape:window-maximized="0"
     inkscape:current-layer="unicorn" />
  <defs
     id="defs4">
    <style
       id="style2">.cls-1{fill:#1d1d1b;}</style>
  </defs>
  <g
     id="g25">
    <path
       style="stroke-width:0.20999999"
       id="path28"
       d="m 8.0155351,19.310787 c -0.0252,0 -2.5557,-0.3108 -3.7422,-2.0853 -0.9933,-1.4889 -1.0983,-2.1882 -1.0983,-2.1924 a 0.2814,0.2814 0 0 0 -0.5586,0.0651 c 0,0.0819 0.1218,0.84 1.1907,2.4381 0.8652,1.2978 2.31,1.89 3.2487,2.1483 a 4.83,4.83 0 0 1 -3.0765,-0.3423 c -2.0538,-1.1172 -3.15,-3.2613 -3.2508,-6.369299 -0.1365,-4.1034005 1.9803,-6.3000005 3.4356,-6.7704005 a 0.28157625,0.28157625 0 0 0 -0.1743,-0.5355 c -1.617,0.525 -3.9711,2.9106 -3.8241,7.3248005 0.1113,3.3222 1.3041,5.6259 3.5427,6.846 a 5.4243,5.4243 0 0 0 2.3709,0.5271 3.8682,3.8682 0 0 0 2.0601,-0.5355 0.2814,0.2814 0 0 0 -0.1176,-0.5187 z M 16.369335,9.2496875 a 0.2835,0.2835 0 0 0 -0.2814,-0.1071 c -0.0735,0.0147 -1.8291,0.336 -2.8791,-1.47 -0.7098,-1.2243 -1.7451,-2.0433 -2.8392,-2.247 a 3.0765,3.0765 0 0 0 -2.5325999,0.7161 0.2814,0.2814 0 0 0 -0.042,0.3948 0.2793,0.2793 0 0 0 0.3948,0.042 c 0.6594,-0.5313 1.3587,-0.7329 2.0768999,-0.5985 0.9198,0.1701 1.8375,0.9093 2.4549,1.9761 a 3.3831,3.3831 0 0 0 2.5956,1.7577 2.1147,2.1147 0 0 1 -0.21,0.0546 c -0.7707,0.147 -1.7514,-0.0693 -2.2386,-0.4914 -0.1407,-0.1218 -0.2898,-0.2751 -0.4536,-0.4431 -0.8043,-0.8232 -2.0202,-2.0643 -3.9374999,-1.5687 a 0.2814,0.2814 0 0 0 0.1218,0.5355 c 1.6043999,-0.42 2.5955999,0.6006 3.3935999,1.4154 0.1764,0.1806 0.3381,0.3465 0.4872,0.4746 0.6111,0.5313005 1.7766,0.8001005 2.7132,0.6195005 0.5775,-0.1113 0.9912,-0.3759005 1.1928,-0.7644005 a 0.2877,0.2877 0 0 0 -0.0168,-0.2961 z m -12.3038999,-1.0626 c -1.785,1.4322 -1.9152,2.8685995 -1.8291,3.9585005 a 5.04,5.04 0 0 0 2.1273,3.614099 c 1.2432,0.84 1.4322,1.89 1.4385,1.9404 a 0.2835,0.2835 0 0 0 0.2583,0.2373 h 0.0189 a 0.2835,0.2835 0 0 0 0.2709,-0.21 4.4919,4.4919 0 0 0 -0.105,-2.499 4.0152,4.0152 0 0 0 -0.84,-1.3965 3.8199,3.8199 0 0 1 -0.8925,-1.6023 2.4234,2.4234 0 0 1 0.63,-2.3372995 0.2825261,0.2825261 0 1 0 -0.378,-0.42 2.9841,2.9841 0 0 0 -0.7854,2.9274005 4.389,4.389 0 0 0 1.0017,1.812299 3.4965,3.4965 0 0 1 0.7371,1.2138 3.9585,3.9585 0 0 1 0.1995,1.1256 4.2924,4.2924 0 0 0 -1.2264,-1.26 4.452,4.452 0 0 1 -1.89,-3.1857 c -0.0819,-1.0164 0.0462,-2.2259995 1.617,-3.4859995 a 0.28155863,0.28155863 0 1 0 -0.3528,-0.4389 z m 9.7313999,-0.21 a 0.2583,0.2583 0 0 0 0.0525,0.0126 0.2814,0.2814 0 0 0 0.2751,-0.2226 1.701,1.701 0 0 0 -0.6594,-1.638 0.2814,0.2814 0 0 0 -0.3402,0.4473 1.1361,1.1361 0 0 1 0.4473,1.0773 0.2856,0.2856 0 0 0 0.2247,0.3234 z m -6.3755999,-3.0912 a 0.2982,0.2982 0 0 0 0.0945,-0.0168 4.2,4.2 0 0 1 2.4465,-0.1554 0.2856,0.2856 0 0 0 0.3527999,-0.1869 0.2793,0.2793 0 0 0 -0.1848,-0.3507 4.704,4.704 0 0 0 -2.8055999,0.1638 0.2814,0.2814 0 0 0 0.0966,0.546 z m 3.6224999,0.1176 c 1.1508,-1.6527 2.5515,-3.4776 3.1731,-4.0635 -0.1764,0.84 -1.008,2.9736 -1.8501,4.8825 a 0.2793,0.2793 0 0 0 0.1449,0.3696 0.2625,0.2625 0 0 0 0.1134,0.0252 0.2814,0.2814 0 0 0 0.2562,-0.168 c 2.4171,-5.4726 1.9572,-5.6952 1.7094,-5.8149 -0.2478,-0.1197 -0.6804,-0.3318 -4.0089,4.4478 a 0.2814,0.2814 0 1 0 0.462,0.3213 z m -0.8568,6.7283995 a 0.7371,0.7371 0 0 0 0.0924,-1.0395 0.7581,0.7581 0 0 0 -1.0163999,-0.2436 0.6573,0.6573 0 0 0 -0.2625,0.5019 0.8568,0.8568 0 0 0 0.168,0.5397 0.7371,0.7371 0 0 0 1.0184999,0.2415 z m -0.5543999,-0.84 a 0.2709,0.2709 0 0 1 0.1932,0.123901 c 0.0735,0.100799 0.0777,0.224699 0.0336,0.254099 a 0.2499,0.2499 0 0 1 -0.231,-0.1134 c -0.0504,-0.0651 -0.1113,-0.209999 0.0042,-0.2604 z m 4.6367999,3.2214 a 0.2814,0.2814 0 0 0 0.21,0.084 0.2898,0.2898 0 0 0 0.21,-0.084 0.6447,0.6447 0 0 0 0.0504,-0.8883 0.2772,0.2772 0 0 0 -0.3885,-0.0315 0.2856,0.2856 0 0 0 -0.0819,0.3927 c 0.0483,0.0651 0.0126,0.1008 -0.0168,0.130201 a 0.2814,0.2814 0 0 0 0.0168,0.396899 z m -4.8551999,1.5519 a 0.2814,0.2814 0 0 0 -0.357,0.1764 c 0,0.0294 -0.2415,0.747601 -0.0882,2.1441 a 0.2814,0.2814 0 0 0 0.2793,0.2499 h 0.0315 a 0.2814,0.2814 0 0 0 0.2499,-0.3108 c -0.1407,-1.26 0.0609,-1.89 0.0609,-1.9047 a 0.2793,0.2793 0 0 0 -0.1764,-0.3549 z m -3.7842,-5.9681995 a 0.2646,0.2646 0 0 0 0.1365,-0.0357 0.2793,0.2793 0 0 0 0.1029,-0.3822 c -1.2831,-2.3226 -0.2919,-4.1874 0.2331,-4.7334 0.2688,0.6426 0.9471,2.3625 1.407,3.5364 a 0.28174652,0.28174652 0 1 0 0.5229,-0.21 c -0.1386,-0.3549 -1.3629,-3.4881 -1.533,-3.8199 a 0.3339,0.3339 0 0 0 -0.2877,-0.1827 c -0.6846,-0.0273 -2.52,2.6313 -0.8274,5.67 a 0.2793,0.2793 0 0 0 0.2457,0.1575 z m 0.9681,-1.2558 a 0.28302905,0.28302905 0 1 0 0.5313,-0.1953 c -0.1659,-0.4431 -0.5544,-1.4847 -0.6069,-1.5897 a 0.3066,0.3066 0 0 0 -0.2499,-0.1596 0.3759,0.3759 0 0 0 -0.3234,0.21 2.1609,2.1609 0 0 0 0.021,2.0538 0.2793,0.2793 0 0 0 0.2457,0.1449 0.2709,0.2709 0 0 0 0.1365,-0.0357 0.2814,0.2814 0 0 0 0.1092,-0.3822 1.5897,1.5897 0 0 1 -0.1911,-0.9303 z m 8.3705999,3.4755005 c -0.7434,-0.42 -1.7724,-1.386 -2.1,-1.7199 a 0.2814,0.2814 0 1 0 -0.3969,0.399 c 0.0126,0.0126 1.26,1.26 2.226,1.8102 0.6846,0.3927 0.9156,0.987 0.6846,1.7598 -0.1071,0.3675 -0.5628,1.5414 -1.848,1.3188 -0.4452,-0.0777 -0.8631,-0.189001 -1.302,-0.308701 a 9.7419,9.7419 0 0 0 -2.6564999,-0.4389 c -1.9509,0 -2.7846,-0.598499 -2.7846,-1.999199 a 0.2814,0.2814 0 1 0 -0.5628,0 c 0,2.559899 2.52,2.559899 3.3474,2.559899 a 9.24,9.24 0 0 1 2.5199999,0.420001 c 0.4347,0.1176 0.882,0.237299 1.3524,0.319199 1.26,0.21 2.1462,-0.5775 2.4843,-1.7115 0.2877,-1.0269 -0.0483,-1.8816 -0.9639,-2.408699 z"
       inkscape:connector-curvature="0" />
  </g>
</svg>
