<svg id="unicorn" xmlns="http://www.w3.org/2000/svg" viewBox="0 0 119.06 117.81"><defs><style>.cls-1{fill:#1d1d1b;}</style></defs><g id="unicorn-2" data-name="unicorn"><path class="cls-1" d="M91.33,66.7c-3.54-2-8.44-6.6-10-8.19a1.34,1.34,0,1,0-1.89,1.9c.06.06,6,6,10.6,8.62,3.26,1.87,4.36,4.7,3.26,8.38-.51,1.75-2.68,7.34-8.8,6.28-2.12-.37-4.11-.9-6.2-1.47a46.39,46.39,0,0,0-12.65-2.09c-9.29,0-13.26-2.85-13.26-9.52a1.34,1.34,0,1,0-2.68,0c0,12.19,12,12.19,15.94,12.19a44,44,0,0,1,12,2c2.07.56,4.2,1.13,6.44,1.52,6,1,10.22-2.75,11.83-8.15C97.29,73.28,95.69,69.21,91.33,66.7Z"/><path class="cls-1" d="M51.47,50.15A1.34,1.34,0,1,0,54,49.22c-.79-2.11-2.64-7.07-2.89-7.57a1.46,1.46,0,0,0-1.19-.76,1.79,1.79,0,0,0-1.54,1,10.29,10.29,0,0,0,.1,9.78,1.33,1.33,0,0,0,1.17.69,1.29,1.29,0,0,0,.65-.17,1.34,1.34,0,0,0,.52-1.82,7.57,7.57,0,0,1-.91-4.43Z"/><path class="cls-1" d="M46.86,56.13a1.26,1.26,0,0,0,.65-.17A1.33,1.33,0,0,0,48,54.14C41.89,43.08,46.61,34.2,49.11,31.6c1.28,3.06,4.51,11.25,6.7,16.84a1.34,1.34,0,1,0,2.49-1c-.66-1.69-6.49-16.61-7.3-18.19a1.59,1.59,0,0,0-1.37-.87c-3.26-.13-12,12.53-3.94,27A1.33,1.33,0,0,0,46.86,56.13Z"/><path class="cls-1" d="M64.88,84.55a1.34,1.34,0,0,0-1.7.84c0,.14-1.15,3.56-.42,10.21a1.34,1.34,0,0,0,1.33,1.19h.15a1.34,1.34,0,0,0,1.19-1.48c-.67-6,.29-9,.29-9.07A1.33,1.33,0,0,0,64.88,84.55Z"/><path class="cls-1" d="M88,77.16a1.34,1.34,0,0,0,1,.4,1.38,1.38,0,0,0,1-.4,3.07,3.07,0,0,0,.24-4.23,1.32,1.32,0,0,0-1.85-.15A1.36,1.36,0,0,0,88,74.65c.23.31.06.48-.08.62A1.34,1.34,0,0,0,88,77.16Z"/><path class="cls-1" d="M68.56,65.82A3.51,3.51,0,0,0,69,60.87a3.61,3.61,0,0,0-4.84-1.16,3.13,3.13,0,0,0-1.25,2.39,4.08,4.08,0,0,0,.8,2.57A3.51,3.51,0,0,0,68.56,65.82Zm-2.64-4a1.29,1.29,0,0,1,.92.59c.35.48.37,1.07.16,1.21a1.19,1.19,0,0,1-1.1-.54C65.66,62.77,65.37,62.08,65.92,61.84Z"/><path class="cls-1" d="M72.64,33.78c5.48-7.87,12.15-16.56,15.11-19.35-.84,4-4.8,14.16-8.81,23.25a1.33,1.33,0,0,0,.69,1.76,1.25,1.25,0,0,0,.54.12,1.34,1.34,0,0,0,1.22-.8C92.9,12.7,90.71,11.64,89.53,11.07S86.29,9.49,70.44,32.25a1.34,1.34,0,1,0,2.2,1.53Z"/><path class="cls-1" d="M55.39,33.22a1.42,1.42,0,0,0,.45-.08,20,20,0,0,1,11.65-.74,1.36,1.36,0,0,0,1.68-.89,1.33,1.33,0,0,0-.88-1.67,22.4,22.4,0,0,0-13.36.78,1.34,1.34,0,0,0,.46,2.6Z"/><path class="cls-1" d="M85.75,47.94A1.23,1.23,0,0,0,86,48a1.34,1.34,0,0,0,1.31-1.06,8.1,8.1,0,0,0-3.14-7.8,1.34,1.34,0,0,0-1.62,2.13,5.41,5.41,0,0,1,2.13,5.13A1.36,1.36,0,0,0,85.75,47.94Z"/><path class="cls-1" d="M39.41,48.94c-8.5,6.82-9.12,13.66-8.71,18.85A24,24,0,0,0,40.83,85C46.75,89,47.65,94,47.68,94.24a1.35,1.35,0,0,0,1.23,1.13H49a1.35,1.35,0,0,0,1.29-1,21.39,21.39,0,0,0-.5-11.9,19.12,19.12,0,0,0-4-6.65,18.19,18.19,0,0,1-4.25-7.63,11.54,11.54,0,0,1,3-11.13,1.34,1.34,0,1,0-1.8-2A14.21,14.21,0,0,0,39,69a20.9,20.9,0,0,0,4.77,8.63,16.65,16.65,0,0,1,3.51,5.78,18.85,18.85,0,0,1,.95,5.36,20.44,20.44,0,0,0-5.84-6,21.2,21.2,0,0,1-9-15.17C33,62.76,33.61,57,41.09,51a1.34,1.34,0,1,0-1.68-2.09Z"/><path class="cls-1" d="M98,54a1.35,1.35,0,0,0-1.34-.51c-.35.07-8.71,1.6-13.71-7-3.38-5.83-8.31-9.73-13.52-10.7a14.65,14.65,0,0,0-12.06,3.41,1.34,1.34,0,0,0-.2,1.88,1.33,1.33,0,0,0,1.88.2c3.14-2.53,6.47-3.49,9.89-2.85,4.38.81,8.75,4.33,11.69,9.41a16.11,16.11,0,0,0,12.36,8.37,10.07,10.07,0,0,1-1,.26c-3.67.7-8.34-.33-10.66-2.34-.67-.58-1.38-1.31-2.16-2.11-3.83-3.92-9.62-9.83-18.75-7.47A1.34,1.34,0,0,0,61,47.1c7.64-2,12.36,2.86,16.16,6.74.84.86,1.61,1.65,2.32,2.26,2.91,2.53,8.46,3.81,12.92,2.95,2.75-.53,4.72-1.79,5.68-3.64A1.37,1.37,0,0,0,98,54Z"/><path class="cls-1" d="M58.22,101.91c-.12,0-12.17-1.48-17.82-9.93-4.73-7.09-5.23-10.42-5.23-10.44a1.34,1.34,0,0,0-2.66.31c0,.39.58,4,5.67,11.61,4.12,6.18,11,9,15.47,10.23A23,23,0,0,1,39,102.06c-9.78-5.32-15-15.53-15.48-30.33-.65-19.54,9.43-30,16.36-32.24a1.34,1.34,0,0,0-.83-2.55c-7.7,2.5-18.91,13.86-18.21,34.88.53,15.82,6.21,26.79,16.87,32.6A25.83,25.83,0,0,0,49,106.93a18.42,18.42,0,0,0,9.81-2.55,1.34,1.34,0,0,0-.56-2.47Z"/></g></svg>